0
SECTION
2
HEADER
9
$INSUNITS
70
4
9
$ACADVER
1
AC1014
9
$HANDSEED
5
FFFF
0
ENDSEC
0
SECTION
2
TABLES
0
TABLE
2
VPORT
5
8
100
AcDbSymbolTable
0
ENDTAB
0
TABLE
2
LTYPE
5
5
100
AcDbSymbolTable
0
LTYPE
5
14
100
AcDbSymbolTableRecord
100
AcDbLinetypeTableRecord
2
BYBLOCK
70
0
0
LTYPE
5
15
100
AcDbSymbolTableRecord
100
AcDbLinetypeTableRecord
2
BYLAYER
70
0
0
ENDTAB
0
TABLE
2
LAYER
5
2
100
AcDbSymbolTable
70
2
0
LAYER
5
50
100
AcDbSymbolTableRecord
100
AcDbLayerTableRecord
2
0
70
0
6
CONTINUOUS
0
ENDTAB
0
TABLE
2
STYLE
5
3
100
AcDbSymbolTable
70
1
0
STYLE
5
11
100
AcDbSymbolTableRecord
100
AcDbTextStyleTableRecord
2
STANDARD
70
0
0
ENDTAB
0
TABLE
2
VIEW
5
6
100
AcDbSymbolTable
70
0
0
ENDTAB
0
TABLE
2
UCS
5
7
100
AcDbSymbolTable
70
0
0
ENDTAB
0
TABLE
2
APPID
5
9
100
AcDbSymbolTable
70
2
0
APPID
5
12
100
AcDbSymbolTableRecord
100
AcDbRegAppTableRecord
2
ACAD
70
0
0
ENDTAB
0
TABLE
2
DIMSTYLE
5
A
100
AcDbSymbolTable
70
1
0
ENDTAB
0
TABLE
2
BLOCK_RECORD
5
1
100
AcDbSymbolTable
70
1
0
BLOCK_RECORD
5
1F
100
AcDbSymbolTableRecord
100
AcDbBlockTableRecord
2
*MODEL_SPACE
0
BLOCK_RECORD
5
1B
100
AcDbSymbolTableRecord
100
AcDbBlockTableRecord
2
*PAPER_SPACE
0
ENDTAB
0
ENDSEC
0
SECTION
2
BLOCKS
0
BLOCK
5
20
100
AcDbEntity
100
AcDbBlockBegin
2
*MODEL_SPACE
0
ENDBLK
5
21
100
AcDbEntity
100
AcDbBlockEnd
0
BLOCK
5
1C
100
AcDbEntity
100
AcDbBlockBegin
2
*PAPER_SPACE
0
ENDBLK
5
1D
100
AcDbEntity
100
AcDbBlockEnd
0
ENDSEC
0
SECTION
2
ENTITIES
0
LWPOLYLINE
5
100
100
AcDbEntity
8
0
100
AcDbPolyline
90
22
70
1
43
0.0
10
-293.92450000000002
20
17.018594987910074
42
0.38142156183961068
10
-293.48099999999999
20
16.521797493955038
42
-0.3814215618395902
10
-293.03750000000002
20
16.024999999999999
10
-293.03750000000002
20
3.0249999999999999
42
-0.41421356237309503
10
-293.53750000000002
20
2.5249999999999999
10
-325.58749999999998
20
2.5250000000000283
42
-0.41421356237309503
10
-326.08749999999992
20
3.0249999999999999
10
-326.08749999999992
20
16.024999999999999
42
-0.38142156183963077
10
-325.64399999999989
20
16.521797493955038
42
0.38142156183962905
10
-325.20049999999992
20
17.018594987910049
10
-325.20049999999992
20
18.024999999999999
42
-0.41421356237309503
10
-324.70049999999992
20
18.524999999999999
10
-318.3005
20
18.524999999999999
42
-0.41421356237309503
10
-317.8005
20
18.024999999999991
10
-317.8005
20
17.024999999999999
42
0.41421356237309503
10
-317.3005
20
16.524999999999999
10
-301.82450000000006
20
16.525000000000002
42
0.41421356237309503
10
-301.3245
20
17.025000000000002
10
-301.3245
20
18.024999999999999
42
-0.41421356237309503
10
-300.8245
20
18.524999999999999
10
-294.42450000000002
20
18.524999999999999
42
-0.41421356237309503
10
-293.92450000000002
20
18.024999999999991
0
LWPOLYLINE
5
101
100
AcDbEntity
8
0
100
AcDbPolyline
90
8
70
1
43
0.0
10
-49.155749999999998
20
60.674999999999997
10
-55.55575000000001
20
60.674999999999997
42
-0.41421356237309503
10
-56.05575000000001
20
61.174999999999997
10
-56.05575000000001
20
75.174999999999997
42
-0.41421356237309503
10
-55.55575000000001
20
75.674999999999997
10
-49.155750000000005
20
75.674999999999997
42
-0.41421356237309503
10
-48.655750000000005
20
75.174999999999997
10
-48.655749999999998
20
61.174999999999997
42
-0.41421356237309503
0
LWPOLYLINE
5
102
100
AcDbEntity
8
0
100
AcDbPolyline
90
44
70
1
43
0.0
10
2.8750000238418671
20
0.72500000000001563
10
2.8750000238418671
20
94.525000000000006
42
0.4142135623730947
10
-1.1249999761581362
20
98.525000000000006
10
-14.850000000000048
20
98.525000000000006
42
0.41421356237309503
10
-16.850000000000048
20
96.52500000000002
10
-16.850000000000069
20
93.725000000468498
42
-1.0000000562506515
10
-21.250000000000007
20
93.725000247034359
10
-21.249999999999982
20
96.52500000000002
42
0.41421356237309503
10
-23.249999999999975
20
98.525000000000006
10
-172.01250000000002
20
98.525000000000006
42
0.41421356237309503
10
-174.01250000000002
20
96.52500000000002
10
-174.01250000000005
20
93.725000000000009
42
-0.99999999999999989
10
-178.41249999999997
20
93.725000000000009
10
-178.41249999999999
20
96.52500000000002
42
0.41421356237309503
10
-180.41249999999997
20
98.525000000000006
10
-324.41250000000014
20
98.525000000000006
42
0.41421356237309503
10
-326.41250000000014
20
96.52500000000002
10
-326.41250000000008
20
93.724999617072271
42
-0.9999999925494194
10
-330.81250000000006
20
93.725000350145137
10
-330.8125
20
96.525000000000006
42
0.41421356237309503
10
-332.8125
20
98.524999999999991
10
-346.53750000000002
20
98.525000000000006
42
0.41421356237309503
10
-350.53750000000002
20
94.525000000000006
10
-350.53750000000002
20
0.7249999999999801
42
0.4142135623730952
10
-346.53750000000002
20
-3.2750000000000234
10
-332.8125
20
-3.2750000000000181
42
0.41421356237309515
10
-330.8125
20
-1.2750000000000261
10
-330.81250000000006
20
1.525000382927725
42
-0.9999999925494194
10
-326.41250000000008
20
1.5249996498548568
10
-326.41250000000014
20
-1.2750000000000259
42
0.41421356237309503
10
-324.41250000000014
20
-3.2750000000000257
10
-161.36249999999995
20
-3.2749999999999972
42
0.41421356237309531
10
-159.36249999999998
20
-1.2750000000000039
10
-159.36249999999998
20
1.5250000000000019
42
-0.99999999999999989
10
-154.96250000000003
20
1.5250000000000064
10
-154.96250000000003
20
-1.2750000000000039
42
0.41421356237309515
10
-152.96250000000003
20
-3.2750000000000048
10
-23.249999999999975
20
-3.2749999999999799
42
0.41421356237309481
10
-21.249999999999972
20
-1.2749999999999906
10
-21.249999999999982
20
1.5250000923943858
42
-0.99999999999999989
10
-16.850000000000041
20
1.5249999076056415
10
-16.850000000000041
20
-1.2749999999999861
42
0.41421356237309531
10
-14.850000000000048
20
-3.2749999999999879
10
-1.1249999761581364
20
-3.2749999999999773
42
0.4142135623730947
0
LWPOLYLINE
5
103
100
AcDbEntity
8
0
100
AcDbPolyline
90
8
70
1
43
0.0
10
-2.5249999999999999
20
73.174999999999997
10
-2.5250000000000017
20
60.174999999999997
42
-0.41421356237309503
10
-3.0249999999999999
20
59.675000000000004
10
-16.024999999999999
20
59.675000000000004
42
-0.41421356237309503
10
-16.525000000000002
20
60.174999999999997
10
-16.524999999999999
20
73.174999999999997
42
-0.41421356237309503
10
-16.024999999999999
20
73.674999999999997
10
-3.0249999999999999
20
73.674999999999997
42
-0.41421356237309503
0
LWPOLYLINE
5
104
100
AcDbEntity
8
0
100
AcDbPolyline
90
8
70
1
43
0.0
10
-21.575000000000003
20
73.174999999999997
10
-21.575000000000003
20
60.174999999999997
42
-0.41421356237309503
10
-22.074999999999999
20
59.675000000000004
10
-35.075000000000003
20
59.675000000000004
42
-0.41421356237309503
10
-35.575000000000003
20
60.174999999999997
10
-35.575000000000003
20
73.174999999999997
42
-0.41421356237309503
10
-35.075000000000003
20
73.674999999999997
10
-22.074999999999999
20
73.674999999999997
42
-0.41421356237309503
0
LWPOLYLINE
5
105
100
AcDbEntity
8
0
100
AcDbPolyline
90
8
70
1
43
0.0
10
-73.031750000000002
20
60.674999999999997
10
-79.431750000000008
20
60.674999999999997
42
-0.41421356237309503
10
-79.931750000000008
20
61.174999999999997
10
-79.931750000000008
20
75.174999999999997
42
-0.41421356237309503
10
-79.431750000000008
20
75.674999999999997
10
-73.031749999999988
20
75.674999999999997
42
-0.41421356237309503
10
-72.531750000000002
20
75.174999999999997
10
-72.531750000000002
20
61.174999999999997
42
-0.41421356237309503
0
LWPOLYLINE
5
106
100
AcDbEntity
8
0
100
AcDbPolyline
90
8
70
1
43
0.0
10
-239.1875
20
91.225000000000009
10
-239.1875
20
77.224999999999994
42
-0.41421356237309503
10
-239.6875
20
76.724999999999994
10
-246.08750000000001
20
76.72499999999998
42
-0.41421356237309503
10
-246.58750000000001
20
77.224999999999994
10
-246.58750000000001
20
91.225000000000009
42
-0.41421356237309503
10
-246.08750000000001
20
91.725000000000009
10
-239.6875
20
91.725000000000009
42
-0.41421356237309503
0
LWPOLYLINE
5
107
100
AcDbEntity
8
0
100
AcDbPolyline
90
8
70
1
43
0.0
10
-192.73750000000004
20
79.224999999999994
10
-192.73750000000004
20
92.224999999999994
42
-0.41421356237309503
10
-192.23750000000001
20
92.725000000000009
10
-179.23750000000001
20
92.725000000000009
42
-0.41421356237309503
10
-178.73750000000001
20
92.224999999999994
10
-178.73750000000001
20
79.224999999999994
42
-0.41421356237309503
10
-179.23750000000001
20
78.724999999999994
10
-192.23750000000001
20
78.724999999999994
42
-0.41421356237309503
0
LWPOLYLINE
5
108
100
AcDbEntity
8
0
100
AcDbPolyline
90
8
70
1
43
0.0
10
-57.29375000000001
20
73.174999999999997
10
-57.29375000000001
20
60.174999999999997
42
-0.41421356237309503
10
-57.79375000000001
20
59.675000000000004
10
-70.793750000000003
20
59.675000000000004
42
-0.41421356237309503
10
-71.293750000000003
20
60.174999999999997
10
-71.293750000000003
20
73.174999999999997
42
-0.41421356237309503
10
-70.793750000000003
20
73.674999999999997
10
-57.79375000000001
20
73.674999999999997
42
-0.41421356237309503
0
LWPOLYLINE
5
109
100
AcDbEntity
8
0
100
AcDbPolyline
90
8
70
1
43
0.0
10
-233.06250000000003
20
88.224999999999994
10
-199.0625
20
88.224999999999994
42
-0.41421356237309503
10
-198.5625
20
87.724999999999994
10
-198.56250000000003
20
83.725000000000009
42
-0.41421356237309503
10
-199.06250000000003
20
83.224999999999994
10
-233.06250000000006
20
83.224999999999994
42
-0.41421356237309503
10
-233.56250000000006
20
83.725000000000009
10
-233.56250000000003
20
87.724999999999994
42
-0.41421356237309503
0
LWPOLYLINE
5
110
100
AcDbEntity
8
0
100
AcDbPolyline
90
8
70
1
43
0.0
10
-138.41250000000002
20
83.224999999999994
10
-172.41250000000002
20
83.224999999999994
42
-0.41421356237309503
10
-172.91250000000002
20
83.725000000000009
10
-172.91250000000002
20
87.724999999999994
42
-0.41421356237309503
10
-172.41250000000002
20
88.224999999999994
10
-138.41250000000002
20
88.224999999999994
42
-0.41421356237309503
10
-137.91250000000002
20
87.724999999999994
10
-137.91250000000002
20
83.725000000000009
42
-0.41421356237309503
0
LWPOLYLINE
5
111
100
AcDbEntity
8
0
100
AcDbPolyline
90
8
70
1
43
0.0
10
-97.775000000000006
20
92.224999999999994
10
-97.775000000000006
20
79.224999999999994
42
-0.41421356237309503
10
-98.275000000000006
20
78.724999999999994
10
-111.27500000000001
20
78.724999999999994
42
-0.41421356237309503
10
-111.77500000000002
20
79.224999999999994
10
-111.77500000000002
20
92.224999999999994
42
-0.41421356237309503
10
-111.27500000000001
20
92.725000000000009
10
-98.275000000000006
20
92.725000000000009
42
-0.41421356237309503
0
LWPOLYLINE
5
112
100
AcDbEntity
8
0
100
AcDbPolyline
90
8
70
1
43
0.0
10
-73.962500000000006
20
92.224999999999994
10
-73.962500000000006
20
79.224999999999994
42
-0.41421356237309503
10
-74.462500000000006
20
78.724999999999994
10
-87.46250000000002
20
78.724999999999994
42
-0.41421356237309503
10
-87.96250000000002
20
79.224999999999994
10
-87.96250000000002
20
92.224999999999994
42
-0.41421356237309503
10
-87.46250000000002
20
92.725000000000009
10
-74.462500000000006
20
92.725000000000009
42
-0.41421356237309503
0
LWPOLYLINE
5
113
100
AcDbEntity
8
0
100
AcDbPolyline
90
8
70
1
43
0.0
10
-50.150000000000006
20
92.224999999999994
10
-50.150000000000006
20
79.224999999999994
42
-0.41421356237309503
10
-50.650000000000006
20
78.724999999999994
10
-63.650000000000006
20
78.724999999999994
42
-0.41421356237309503
10
-64.150000000000006
20
79.224999999999994
10
-64.150000000000006
20
92.224999999999994
42
-0.41421356237309503
10
-63.650000000000006
20
92.725000000000009
10
-50.650000000000006
20
92.725000000000009
42
-0.41421356237309503
0
LWPOLYLINE
5
114
100
AcDbEntity
8
0
100
AcDbPolyline
90
8
70
1
43
0.0
10
-21.575000000000003
20
92.224999999999994
10
-21.575000000000003
20
79.224999999999994
42
-0.41421356237309503
10
-22.074999999999999
20
78.724999999999994
10
-35.075000000000003
20
78.724999999999994
42
-0.41421356237309503
10
-35.575000000000003
20
79.224999999999994
10
-35.57500000000001
20
92.224999999999994
42
-0.41421356237309503
10
-35.075000000000003
20
92.725000000000009
10
-22.074999999999999
20
92.725000000000009
42
-0.41421356237309503
0
LWPOLYLINE
5
115
100
AcDbEntity
8
0
100
AcDbPolyline
90
8
70
1
43
0.0
10
-2.5249999999999999
20
92.224999999999994
10
-2.5250000000000017
20
79.224999999999994
42
-0.41421356237309503
10
-3.0249999999999999
20
78.724999999999994
10
-16.024999999999999
20
78.724999999999994
42
-0.41421356237309503
10
-16.525000000000002
20
79.224999999999994
10
-16.525000000000006
20
92.224999999999994
42
-0.41421356237309503
10
-16.024999999999999
20
92.725000000000009
10
-3.0249999999999999
20
92.725000000000009
42
-0.41421356237309503
0
LWPOLYLINE
5
116
100
AcDbEntity
8
0
100
AcDbPolyline
90
8
70
1
43
0.0
10
-291.54325
20
56.125
42
0.41421356237309503
10
-292.04325
20
56.625000000000007
10
-298.44325000000003
20
56.625000000000007
42
0.41421356237309503
10
-298.94325000000003
20
56.125000000000007
10
-298.94324999999998
20
42.125000000000014
42
0.41421356237309503
10
-298.44324999999998
20
41.625000000000007
10
-292.04325000000006
20
41.625000000000007
42
0.41421356237309503
10
-291.54325
20
42.125
0
LWPOLYLINE
5
117
100
AcDbEntity
8
0
100
AcDbPolyline
90
8
70
1
43
0.0
10
-315.91925000000003
20
41.625000000000007
10
-322.31924999999995
20
41.625000000000007
42
-0.41421356237309503
10
-322.81924999999995
20
42.124999999999979
10
-322.81924999999995
20
56.125000000000007
42
-0.41421356237309503
10
-322.31924999999995
20
56.625000000000007
10
-315.91925000000003
20
56.625000000000007
42
-0.41421356237309503
10
-315.41925000000003
20
56.125
10
-315.41925000000003
20
42.125
42
-0.41421356237309503
0
LWPOLYLINE
5
118
100
AcDbEntity
8
0
100
AcDbPolyline
90
8
70
1
43
0.0
10
-300.18124999999998
20
54.125000000000007
10
-300.18124999999998
20
41.125
42
-0.41421356237309503
10
-300.68124999999998
20
40.625
10
-313.68124999999998
20
40.624999999999993
42
-0.41421356237309503
10
-314.18124999999998
20
41.125
10
-314.18124999999998
20
54.125000000000007
42
-0.41421356237309503
10
-313.68124999999998
20
54.625
10
-300.68124999999998
20
54.625000000000014
42
-0.41421356237309503
0
LWPOLYLINE
5
119
100
AcDbEntity
8
0
100
AcDbPolyline
90
8
70
1
43
0.0
10
-331.13750000000005
20
54.125000000000007
10
-331.13750000000005
20
41.125
42
-0.41421356237309503
10
-331.63749999999999
20
40.625
10
-344.63749999999999
20
40.625000000000028
42
-0.41421356237309503
10
-345.13749999999993
20
41.125
10
-345.13749999999993
20
54.125000000000007
42
-0.41421356237309503
10
-344.63749999999999
20
54.625
10
-331.63749999999999
20
54.624999999999979
42
-0.41421356237309503
0
LWPOLYLINE
5
120
100
AcDbEntity
8
0
100
AcDbPolyline
90
8
70
1
43
0.0
10
-211.28749999999999
20
16.525000000000002
10
-198.28749999999999
20
16.525000000000006
42
-0.41421356237309503
10
-197.78749999999999
20
16.024999999999999
10
-197.78749999999999
20
3.0249999999999999
42
-0.41421356237309503
10
-198.28749999999999
20
2.5249999999999999
10
-211.28749999999999
20
2.5249999999999928
42
-0.41421356237309503
10
-211.78750000000002
20
3.0249999999999999
10
-211.78750000000002
20
16.024999999999999
42
-0.41421356237309503
0
LWPOLYLINE
5
121
100
AcDbEntity
8
0
100
AcDbPolyline
90
8
70
1
43
0.0
10
-216.83750000000001
20
16.024999999999999
42
0.41421356237309503
10
-217.33750000000001
20
16.525000000000006
10
-230.33750000000001
20
16.525000000000002
42
0.41421356237309503
10
-230.83750000000003
20
16.024999999999999
10
-230.83750000000003
20
3.0249999999999999
42
0.41421356237309503
10
-230.33750000000001
20
2.5249999999999928
10
-217.33750000000001
20
2.5249999999999999
42
0.41421356237309503
10
-216.83750000000001
20
3.0249999999999999
0
LWPOLYLINE
5
122
100
AcDbEntity
8
0
100
AcDbPolyline
90
8
70
1
43
0.0
10
-235.88750000000002
20
16.024999999999999
42
0.41421356237309503
10
-236.38750000000002
20
16.525000000000006
10
-249.38749999999999
20
16.525000000000002
42
0.41421356237309503
10
-249.88749999999999
20
16.024999999999999
10
-249.88749999999999
20
3.0249999999999999
42
0.41421356237309503
10
-249.38749999999999
20
2.5249999999999928
10
-236.38750000000002
20
2.5249999999999999
42
0.41421356237309503
10
-235.88750000000002
20
3.0249999999999999
0
LWPOLYLINE
5
123
100
AcDbEntity
8
0
100
AcDbPolyline
90
8
70
1
43
0.0
10
-254.93750000000003
20
16.024999999999999
42
0.41421356237309503
10
-255.43750000000003
20
16.525000000000006
10
-268.4375
20
16.525000000000002
42
0.41421356237309503
10
-268.9375
20
16.024999999999999
10
-268.9375
20
3.0249999999999999
42
0.41421356237309503
10
-268.4375
20
2.5249999999999928
10
-255.43750000000003
20
2.5249999999999999
42
0.41421356237309503
10
-254.93750000000003
20
3.0249999999999999
0
LWPOLYLINE
5
124
100
AcDbEntity
8
0
100
AcDbPolyline
90
8
70
1
43
0.0
10
-273.98750000000001
20
16.024999999999999
42
0.41421356237309503
10
-274.48750000000007
20
16.525000000000006
10
-287.48750000000001
20
16.525000000000002
42
0.41421356237309503
10
-287.98750000000001
20
16.024999999999999
10
-287.98750000000001
20
3.0249999999999999
42
0.41421356237309503
10
-287.48750000000001
20
2.5249999999999928
10
-274.48750000000007
20
2.5249999999999999
42
0.41421356237309503
10
-273.98750000000001
20
3.0249999999999999
0
LWPOLYLINE
5
125
100
AcDbEntity
8
0
100
AcDbPolyline
90
8
70
1
43
0.0
10
-140.34999999999999
20
60.174999999999997
10
-140.34999999999999
20
73.174999999999997
42
-0.41421356237309503
10
-139.84999999999999
20
73.674999999999997
10
-126.85000000000001
20
73.675000000000011
42
-0.41421356237309503
10
-126.34999999999999
20
73.174999999999997
10
-126.35000000000002
20
60.174999999999997
42
-0.41421356237309503
10
-126.85000000000001
20
59.675000000000004
10
-139.84999999999999
20
59.674999999999997
42
-0.41421356237309503
0
LWPOLYLINE
5
126
100
AcDbEntity
8
0
100
AcDbPolyline
90
8
70
1
43
0.0
10
-121.30000000000001
20
60.174999999999997
10
-121.29999999999998
20
73.174999999999997
42
-0.41421356237309503
10
-120.8
20
73.674999999999997
10
-107.80000000000001
20
73.675000000000011
42
-0.41421356237309503
10
-107.30000000000001
20
73.174999999999997
10
-107.30000000000001
20
60.174999999999997
42
-0.41421356237309503
10
-107.80000000000001
20
59.675000000000004
10
-120.8
20
59.674999999999997
42
-0.41421356237309503
0
LWPOLYLINE
5
127
100
AcDbEntity
8
0
100
AcDbPolyline
90
8
70
1
43
0.0
10
-102.25000000000001
20
60.174999999999997
10
-102.25000000000001
20
73.174999999999997
42
-0.41421356237309503
10
-101.75
20
73.674999999999997
10
-88.75
20
73.675000000000011
42
-0.41421356237309503
10
-88.25
20
73.174999999999997
10
-88.25
20
60.174999999999997
42
-0.41421356237309503
10
-88.75
20
59.675000000000004
10
-101.75
20
59.674999999999997
42
-0.41421356237309503
0
LWPOLYLINE
5
128
100
AcDbEntity
8
0
100
AcDbPolyline
90
8
70
1
43
0.0
10
-226.07500000000002
20
41.125
10
-226.07500000000002
20
54.125000000000007
42
-0.41421356237309503
10
-225.57500000000002
20
54.625
10
-212.57499999999999
20
54.625000000000014
42
-0.41421356237309503
10
-212.07499999999999
20
54.125000000000007
10
-212.07499999999999
20
41.125
42
-0.41421356237309503
10
-212.57499999999999
20
40.625
10
-225.57500000000002
20
40.624999999999993
42
-0.41421356237309503
0
LWPOLYLINE
5
129
100
AcDbEntity
8
0
100
AcDbPolyline
90
8
70
1
43
0.0
10
-231.125
20
54.125000000000007
10
-231.125
20
41.125
42
-0.41421356237309503
10
-231.625
20
40.625
10
-244.62500000000003
20
40.624999999999993
42
-0.41421356237309503
10
-245.12500000000003
20
41.125
10
-245.12500000000003
20
54.125000000000007
42
-0.41421356237309503
10
-244.62500000000003
20
54.625
10
-231.625
20
54.625000000000014
42
-0.41421356237309503
0
LWPOLYLINE
5
130
100
AcDbEntity
8
0
100
AcDbPolyline
90
8
70
1
43
0.0
10
-250.17500000000001
20
54.125000000000007
10
-250.17500000000001
20
41.125
42
-0.41421356237309503
10
-250.67500000000001
20
40.625
10
-263.67500000000001
20
40.624999999999993
42
-0.41421356237309503
10
-264.17500000000007
20
41.125
10
-264.17500000000007
20
54.125000000000007
42
-0.41421356237309503
10
-263.67500000000001
20
54.625
10
-250.67500000000001
20
54.625000000000014
42
-0.41421356237309503
0
LWPOLYLINE
5
131
100
AcDbEntity
8
0
100
AcDbPolyline
90
8
70
1
43
0.0
10
-269.22500000000002
20
54.125000000000007
10
-269.22500000000002
20
41.125
42
-0.41421356237309503
10
-269.72500000000002
20
40.625
10
-282.72500000000002
20
40.624999999999993
42
-0.41421356237309503
10
-283.22500000000002
20
41.125
10
-283.22500000000002
20
54.125000000000007
42
-0.41421356237309503
10
-282.72500000000002
20
54.625
10
-269.72500000000002
20
54.625000000000014
42
-0.41421356237309503
0
LWPOLYLINE
5
132
100
AcDbEntity
8
0
100
AcDbPolyline
90
8
70
1
43
0.0
10
-72.225000000000009
20
48.625
10
-72.224999999999994
20
46.625
42
-0.41421356237309503
10
-72.724999999999994
20
46.125
10
-74.725000000000009
20
46.125000000000007
42
-0.41421356237308982
10
-75.224999999999994
20
46.625000000000007
10
-75.224999999999994
20
48.625000000000007
42
-0.41421356237310025
10
-74.72499999999998
20
49.125000000000007
10
-72.724999999999994
20
49.124999999999979
42
-0.41421356237309503
0
LWPOLYLINE
5
133
100
AcDbEntity
8
0
100
AcDbPolyline
90
8
70
1
43
0.0
10
-345.13749999999993
20
60.174999999999997
10
-345.13749999999993
20
73.174999999999997
42
-0.41421356237309503
10
-344.63749999999999
20
73.674999999999997
10
-331.63749999999999
20
73.674999999999969
42
-0.41421356237309503
10
-331.13750000000005
20
73.174999999999997
10
-331.13750000000005
20
60.174999999999997
42
-0.41421356237309503
10
-331.63749999999999
20
59.675000000000004
10
-344.63749999999999
20
59.675000000000026
42
-0.41421356237309503
0
LWPOLYLINE
5
134
100
AcDbEntity
8
0
100
AcDbPolyline
90
8
70
1
43
0.0
10
-107.01250000000002
20
22.074999999999999
10
-107.01250000000002
20
35.075000000000003
42
-0.41421356237309503
10
-106.51250000000002
20
35.575000000000003
10
-93.512500000000003
20
35.57500000000001
42
-0.41421356237309503
10
-93.012499999999989
20
35.075000000000003
10
-93.012499999999989
20
22.074999999999999
42
-0.41421356237309503
10
-93.512500000000003
20
21.575000000000003
10
-106.51250000000002
20
21.574999999999992
42
-0.41421356237309503
0
LWPOLYLINE
5
135
100
AcDbEntity
8
0
100
AcDbPolyline
90
8
70
1
43
0.0
10
-331.63749999999999
20
2.5249999999999999
10
-344.63749999999999
20
2.5250000000000283
42
-0.41421356237309503
10
-345.13749999999993
20
3.0249999999999999
10
-345.13749999999993
20
16.024999999999999
42
-0.41421356237309503
10
-344.63749999999999
20
16.525000000000002
10
-331.63749999999999
20
16.52499999999997
42
-0.41421356237309503
10
-331.13750000000005
20
16.024999999999999
10
-331.13750000000005
20
3.0249999999999999
42
-0.41421356237309503
0
LWPOLYLINE
5
136
100
AcDbEntity
8
0
100
AcDbPolyline
90
8
70
1
43
0.0
10
-3.0249999999999999
20
21.575000000000003
10
-16.024999999999999
20
21.574999999999996
42
-0.41421356237309503
10
-16.525000000000002
20
22.074999999999999
10
-16.524999999999999
20
35.075000000000003
42
-0.41421356237309503
10
-16.024999999999999
20
35.575000000000003
10
-3.0249999999999999
20
35.575000000000003
42
-0.41421356237309503
10
-2.5249999999999999
20
35.075000000000003
10
-2.5250000000000017
20
22.074999999999999
42
-0.41421356237309503
0
LWPOLYLINE
5
137
100
AcDbEntity
8
0
100
AcDbPolyline
90
8
70
1
43
0.0
10
-64.150000000000006
20
22.074999999999999
10
-64.150000000000006
20
35.075000000000003
42
-0.41421356237309503
10
-63.650000000000006
20
35.575000000000003
10
-50.650000000000006
20
35.575000000000003
42
-0.41421356237309503
10
-50.150000000000006
20
35.075000000000003
10
-50.150000000000006
20
22.074999999999999
42
-0.41421356237309503
10
-50.650000000000006
20
21.575000000000003
10
-63.650000000000006
20
21.575000000000003
42
-0.41421356237309503
0
LWPOLYLINE
5
138
100
AcDbEntity
8
0
100
AcDbPolyline
90
8
70
1
43
0.0
10
-22.074999999999999
20
21.575000000000003
10
-35.075000000000003
20
21.575000000000003
42
-0.41421356237309503
10
-35.575000000000003
20
22.074999999999999
10
-35.575000000000003
20
35.075000000000003
42
-0.41421356237309503
10
-35.075000000000003
20
35.575000000000003
10
-22.074999999999999
20
35.575000000000003
42
-0.41421356237309503
10
-21.575000000000003
20
35.075000000000003
10
-21.575000000000003
20
22.074999999999999
42
-0.41421356237309503
0
LWPOLYLINE
5
139
100
AcDbEntity
8
0
100
AcDbPolyline
90
8
70
1
43
0.0
10
-87.96250000000002
20
22.074999999999999
10
-87.962500000000006
20
35.075000000000003
42
-0.41421356237309503
10
-87.46250000000002
20
35.575000000000003
10
-74.462500000000006
20
35.575000000000003
42
-0.41421356237309503
10
-73.962500000000006
20
35.075000000000003
10
-73.962500000000006
20
22.074999999999999
42
-0.41421356237309503
10
-74.462500000000006
20
21.575000000000003
10
-87.46250000000002
20
21.574999999999992
42
-0.41421356237309503
0
LWPOLYLINE
5
140
100
AcDbEntity
8
0
100
AcDbPolyline
90
8
70
1
43
0.0
10
-245.91250000000002
20
21.575000000000003
10
-258.91250000000002
20
21.574999999999992
42
-0.41421356237309503
10
-259.41250000000002
20
22.074999999999999
10
-259.41250000000002
20
35.075000000000003
42
-0.41421356237309503
10
-258.91250000000002
20
35.575000000000003
10
-245.91250000000002
20
35.57500000000001
42
-0.41421356237309503
10
-245.41250000000002
20
35.075000000000003
10
-245.41250000000002
20
22.074999999999999
42
-0.41421356237309503
0
LWPOLYLINE
5
141
100
AcDbEntity
8
0
100
AcDbPolyline
90
8
70
1
43
0.0
10
-112.56250000000001
20
21.575000000000003
10
-125.5625
20
21.574999999999992
42
-0.41421356237309503
10
-126.06250000000001
20
22.074999999999999
10
-126.0625
20
35.075000000000003
42
-0.41421356237309503
10
-125.5625
20
35.575000000000003
10
-112.56250000000001
20
35.57500000000001
42
-0.41421356237309503
10
-112.0625
20
35.075000000000003
10
-112.0625
20
22.074999999999999
42
-0.41421356237309503
0
LWPOLYLINE
5
142
100
AcDbEntity
8
0
100
AcDbPolyline
90
8
70
1
43
0.0
10
-150.66249999999999
20
21.575000000000003
10
-163.66250000000002
20
21.574999999999992
42
-0.41421356237309503
10
-164.16250000000002
20
22.074999999999999
10
-164.16250000000002
20
35.075000000000003
42
-0.41421356237309503
10
-163.66250000000002
20
35.575000000000003
10
-150.66249999999999
20
35.57500000000001
42
-0.41421356237309503
10
-150.16249999999999
20
35.075000000000003
10
-150.16249999999999
20
22.074999999999999
42
-0.41421356237309503
0
LWPOLYLINE
5
143
100
AcDbEntity
8
0
100
AcDbPolyline
90
8
70
1
43
0.0
10
-226.86250000000001
20
21.575000000000003
10
-239.86250000000001
20
21.574999999999992
42
-0.41421356237309503
10
-240.36250000000001
20
22.074999999999999
10
-240.36250000000001
20
35.075000000000003
42
-0.41421356237309503
10
-239.86250000000001
20
35.575000000000003
10
-226.86250000000001
20
35.57500000000001
42
-0.41421356237309503
10
-226.36250000000001
20
35.075000000000003
10
-226.36250000000001
20
22.074999999999999
42
-0.41421356237309503
0
LWPOLYLINE
5
144
100
AcDbEntity
8
0
100
AcDbPolyline
90
8
70
1
43
0.0
10
-207.8125
20
21.575000000000003
42
0.41421356237309503
10
-207.3125
20
22.074999999999999
10
-207.3125
20
35.075000000000003
42
0.41421356237309503
10
-207.8125
20
35.57500000000001
10
-220.8125
20
35.575000000000003
42
0.41421356237309503
10
-221.3125
20
35.075000000000003
10
-221.3125
20
22.074999999999999
42
0.41421356237309503
10
-220.8125
20
21.575000000000003
0
LWPOLYLINE
5
145
100
AcDbEntity
8
0
100
AcDbPolyline
90
8
70
1
43
0.0
10
-131.61250000000001
20
21.575000000000003
42
0.41421356237309503
10
-131.11250000000001
20
22.074999999999999
10
-131.11250000000001
20
35.075000000000003
42
0.41421356237309503
10
-131.61250000000001
20
35.575000000000003
10
-144.61250000000001
20
35.575000000000003
42
0.41421356237309503
10
-145.11250000000001
20
35.075000000000003
10
-145.11250000000001
20
22.074999999999999
42
0.41421356237309503
10
-144.61250000000001
20
21.575000000000003
0
LWPOLYLINE
5
146
100
AcDbEntity
8
0
100
AcDbPolyline
90
8
70
1
43
0.0
10
-183.21250000000003
20
22.074999999999999
10
-183.21250000000003
20
35.075000000000003
42
-0.41421356237309503
10
-182.71250000000003
20
35.575000000000003
10
-169.71250000000001
20
35.57500000000001
42
-0.41421356237309503
10
-169.21250000000001
20
35.075000000000003
10
-169.21250000000001
20
22.074999999999999
42
-0.41421356237309503
10
-169.71250000000001
20
21.575000000000003
10
-182.71250000000003
20
21.574999999999992
42
-0.41421356237309503
0
LWPOLYLINE
5
147
100
AcDbEntity
8
0
100
AcDbPolyline
90
8
70
1
43
0.0
10
-188.76249999999999
20
21.575000000000003
10
-201.76249999999999
20
21.574999999999992
42
-0.41421356237309503
10
-202.26249999999999
20
22.074999999999999
10
-202.26249999999999
20
35.075000000000003
42
-0.41421356237309503
10
-201.76249999999999
20
35.575000000000003
10
-188.76249999999999
20
35.57500000000001
42
-0.41421356237309503
10
-188.26249999999999
20
35.075000000000003
10
-188.26249999999999
20
22.074999999999999
42
-0.41421356237309503
0
LWPOLYLINE
5
148
100
AcDbEntity
8
0
100
AcDbPolyline
90
8
70
1
43
0.0
10
-264.96249999999998
20
21.575000000000003
10
-277.96249999999998
20
21.574999999999992
42
-0.41421356237309503
10
-278.46250000000003
20
22.074999999999999
10
-278.46250000000003
20
35.075000000000003
42
-0.41421356237309503
10
-277.96249999999998
20
35.575000000000003
10
-264.96249999999998
20
35.57500000000001
42
-0.41421356237309503
10
-264.46249999999998
20
35.075000000000003
10
-264.46249999999998
20
22.074999999999999
42
-0.41421356237309503
0
LWPOLYLINE
5
149
100
AcDbEntity
8
0
100
AcDbPolyline
90
8
70
1
43
0.0
10
-3.0249999999999999
20
40.625
10
-16.024999999999999
20
40.625
42
-0.41421356237309503
10
-16.525000000000002
20
41.125
10
-16.524999999999999
20
54.125000000000007
42
-0.41421356237309503
10
-16.024999999999999
20
54.625
10
-3.0249999999999999
20
54.625
42
-0.41421356237309503
10
-2.5249999999999999
20
54.125000000000007
10
-2.5250000000000017
20
41.125
42
-0.41421356237309503
0
LWPOLYLINE
5
150
100
AcDbEntity
8
0
100
AcDbPolyline
90
8
70
1
43
0.0
10
-22.074999999999999
20
40.625
10
-35.075000000000003
20
40.625
42
-0.41421356237309503
10
-35.575000000000003
20
41.125
10
-35.575000000000003
20
54.125000000000007
42
-0.41421356237309503
10
-35.075000000000003
20
54.625
10
-22.074999999999999
20
54.625
42
-0.41421356237309503
10
-21.575000000000003
20
54.125000000000007
10
-21.575000000000003
20
41.125
42
-0.41421356237309503
0
LWPOLYLINE
5
151
100
AcDbEntity
8
0
100
AcDbPolyline
90
8
70
1
43
0.0
10
-66.53125
20
41.125
10
-66.53125
20
54.125000000000007
42
-0.41421356237309503
10
-66.03125
20
54.625
10
-48.268750000000004
20
54.625
42
-0.41421356237309503
10
-47.768750000000004
20
54.125000000000007
10
-47.768750000000004
20
41.125
42
-0.41421356237309503
10
-48.268750000000004
20
40.625
10
-66.03125
20
40.625
42
-0.41421356237309503
0
LWPOLYLINE
5
152
100
AcDbEntity
8
0
100
AcDbPolyline
90
8
70
1
43
0.0
10
-307.82499999999999
20
21.575000000000003
10
-320.82500000000005
20
21.575000000000028
42
-0.41421356237309503
10
-321.32499999999999
20
22.074999999999999
10
-321.32499999999999
20
35.075000000000003
42
-0.41421356237309503
10
-320.82500000000005
20
35.575000000000003
10
-307.82499999999999
20
35.57500000000001
42
-0.41421356237309503
10
-307.32499999999999
20
35.075000000000003
10
-307.32499999999999
20
22.074999999999999
42
-0.41421356237309503
0
LWPOLYLINE
5
153
100
AcDbEntity
8
0
100
AcDbPolyline
90
8
70
1
43
0.0
10
-284.01249999999999
20
21.575000000000003
42
0.41421356237309503
10
-283.51249999999999
20
22.074999999999999
10
-283.51249999999999
20
35.075000000000003
42
0.41421356237309503
10
-284.01249999999999
20
35.57500000000001
10
-297.01250000000005
20
35.575000000000003
42
0.41421356237309503
10
-297.51250000000005
20
35.075000000000003
10
-297.51250000000005
20
22.074999999999999
42
0.41421356237309503
10
-297.01250000000005
20
21.575000000000003
0
LWPOLYLINE
5
154
100
AcDbEntity
8
0
100
AcDbPolyline
90
8
70
1
43
0.0
10
-331.63749999999999
20
21.575000000000003
10
-344.63749999999999
20
21.575000000000028
42
-0.41421356237309503
10
-345.13749999999993
20
22.074999999999999
10
-345.13749999999993
20
35.075000000000003
42
-0.41421356237309503
10
-344.63749999999999
20
35.575000000000003
10
-331.63749999999999
20
35.574999999999974
42
-0.41421356237309503
10
-331.13750000000005
20
35.075000000000003
10
-331.13750000000005
20
22.074999999999999
42
-0.41421356237309503
0
LWPOLYLINE
5
155
100
AcDbEntity
8
0
100
AcDbPolyline
90
8
70
1
43
0.0
10
-92.725000000000009
20
41.125
10
-92.725000000000009
20
54.125000000000007
42
-0.41421356237309503
10
-92.224999999999994
20
54.625
10
-79.224999999999994
20
54.625
42
-0.41421356237309503
10
-78.724999999999994
20
54.125000000000007
10
-78.724999999999994
20
41.125
42
-0.41421356237309503
10
-79.224999999999994
20
40.625
10
-92.224999999999994
20
40.624999999999993
42
-0.41421356237309503
0
LWPOLYLINE
5
156
100
AcDbEntity
8
0
100
AcDbPolyline
90
8
70
1
43
0.0
10
-117.32500000000002
20
40.625
10
-130.32499999999999
20
40.624999999999993
42
-0.41421356237309503
10
-130.82499999999999
20
41.125
10
-130.82499999999999
20
54.125000000000007
42
-0.41421356237309503
10
-130.32499999999999
20
54.625
10
-117.32500000000002
20
54.625000000000014
42
-0.41421356237309503
10
-116.82500000000002
20
54.125000000000007
10
-116.82500000000002
20
41.125
42
-0.41421356237309503
0
LWPOLYLINE
5
157
100
AcDbEntity
8
0
100
AcDbPolyline
90
8
70
1
43
0.0
10
-155.42500000000001
20
40.625
10
-168.42500000000001
20
40.624999999999993
42
-0.41421356237309503
10
-168.92500000000001
20
41.125
10
-168.92500000000001
20
54.125000000000007
42
-0.41421356237309503
10
-168.42500000000001
20
54.625
10
-155.42500000000001
20
54.625000000000014
42
-0.41421356237309503
10
-154.92500000000001
20
54.125000000000007
10
-154.92500000000004
20
41.125
42
-0.41421356237309503
0
LWPOLYLINE
5
158
100
AcDbEntity
8
0
100
AcDbPolyline
90
8
70
1
43
0.0
10
-136.375
20
40.625
10
-149.375
20
40.624999999999993
42
-0.41421356237309503
10
-149.875
20
41.125
10
-149.875
20
54.125000000000007
42
-0.41421356237309503
10
-149.375
20
54.625
10
-136.375
20
54.625000000000014
42
-0.41421356237309503
10
-135.875
20
54.125000000000007
10
-135.87500000000003
20
41.125
42
-0.41421356237309503
0
LWPOLYLINE
5
159
100
AcDbEntity
8
0
100
AcDbPolyline
90
8
70
1
43
0.0
10
-174.47500000000002
20
40.625
10
-187.47499999999999
20
40.624999999999993
42
-0.41421356237309503
10
-187.97499999999999
20
41.125
10
-187.97499999999999
20
54.125000000000007
42
-0.41421356237309503
10
-187.47499999999999
20
54.625
10
-174.47500000000002
20
54.625000000000014
42
-0.41421356237309503
10
-173.97500000000002
20
54.125000000000007
10
-173.97500000000002
20
41.125
42
-0.41421356237309503
0
LWPOLYLINE
5
160
100
AcDbEntity
8
0
100
AcDbPolyline
90
8
70
1
43
0.0
10
-193.52500000000003
20
40.625
10
-206.52500000000003
20
40.624999999999993
42
-0.41421356237309503
10
-207.02500000000003
20
41.125
10
-207.02500000000003
20
54.125000000000007
42
-0.41421356237309503
10
-206.52500000000003
20
54.625
10
-193.52500000000003
20
54.625000000000014
42
-0.41421356237309503
10
-193.02500000000003
20
54.125000000000007
10
-193.02500000000003
20
41.125
42
-0.41421356237309503
0
LWPOLYLINE
5
161
100
AcDbEntity
8
0
100
AcDbPolyline
90
8
70
1
43
0.0
10
-111.77500000000002
20
41.125
10
-111.77500000000002
20
54.125000000000007
42
-0.41421356237309503
10
-111.27500000000001
20
54.625
10
-98.275000000000006
20
54.625000000000014
42
-0.41421356237309503
10
-97.775000000000006
20
54.125000000000007
10
-97.775000000000006
20
41.125
42
-0.41421356237309503
10
-98.275000000000006
20
40.625
10
-111.27500000000001
20
40.624999999999993
42
-0.41421356237309503
0
LWPOLYLINE
5
162
100
AcDbEntity
8
0
100
AcDbPolyline
90
8
70
1
43
0.0
10
-241.15000000000003
20
59.675000000000004
10
-254.15000000000003
20
59.674999999999997
42
-0.41421356237309503
10
-254.65000000000003
20
60.174999999999997
10
-254.65000000000003
20
73.174999999999997
42
-0.41421356237309503
10
-254.15000000000003
20
73.674999999999997
10
-241.15000000000003
20
73.675000000000011
42
-0.41421356237309503
10
-240.65000000000001
20
73.174999999999997
10
-240.65000000000001
20
60.174999999999997
42
-0.41421356237309503
0
LWPOLYLINE
5
163
100
AcDbEntity
8
0
100
AcDbPolyline
90
8
70
1
43
0.0
10
-222.10000000000002
20
59.675000000000004
42
0.41421356237309503
10
-221.59999999999999
20
60.174999999999997
10
-221.59999999999999
20
73.174999999999997
42
0.41421356237309503
10
-222.10000000000002
20
73.674999999999997
10
-235.10000000000002
20
73.674999999999997
42
0.41421356237309503
10
-235.60000000000002
20
73.174999999999997
10
-235.60000000000002
20
60.174999999999997
42
0.41421356237309503
10
-235.10000000000002
20
59.675000000000004
0
LWPOLYLINE
5
164
100
AcDbEntity
8
0
100
AcDbPolyline
90
8
70
1
43
0.0
10
-203.05000000000004
20
59.675000000000004
10
-216.05000000000004
20
59.674999999999997
42
-0.41421356237309503
10
-216.55000000000004
20
60.174999999999997
10
-216.55000000000004
20
73.174999999999997
42
-0.41421356237309503
10
-216.05000000000004
20
73.674999999999997
10
-203.05000000000004
20
73.675000000000011
42
-0.41421356237309503
10
-202.55000000000001
20
73.174999999999997
10
-202.55000000000001
20
60.174999999999997
42
-0.41421356237309503
0
LWPOLYLINE
5
165
100
AcDbEntity
8
0
100
AcDbPolyline
90
8
70
1
43
0.0
10
-164.95000000000002
20
59.675000000000004
10
-177.94999999999999
20
59.674999999999997
42
-0.41421356237309503
10
-178.44999999999999
20
60.174999999999997
10
-178.44999999999999
20
73.174999999999997
42
-0.41421356237309503
10
-177.94999999999999
20
73.674999999999997
10
-164.95000000000002
20
73.675000000000011
42
-0.41421356237309503
10
-164.44999999999999
20
73.174999999999997
10
-164.44999999999999
20
60.174999999999997
42
-0.41421356237309503
0
LWPOLYLINE
5
166
100
AcDbEntity
8
0
100
AcDbPolyline
90
8
70
1
43
0.0
10
-184.00000000000003
20
59.675000000000004
10
-197.00000000000003
20
59.674999999999997
42
-0.41421356237309503
10
-197.50000000000003
20
60.174999999999997
10
-197.50000000000003
20
73.174999999999997
42
-0.41421356237309503
10
-197.00000000000003
20
73.674999999999997
10
-184.00000000000003
20
73.675000000000011
42
-0.41421356237309503
10
-183.5
20
73.174999999999997
10
-183.5
20
60.174999999999997
42
-0.41421356237309503
0
LWPOLYLINE
5
167
100
AcDbEntity
8
0
100
AcDbPolyline
90
8
70
1
43
0.0
10
-260.19999999999999
20
59.675000000000004
10
-273.19999999999999
20
59.674999999999997
42
-0.41421356237309503
10
-273.69999999999999
20
60.174999999999997
10
-273.69999999999999
20
73.174999999999997
42
-0.41421356237309503
10
-273.19999999999999
20
73.674999999999997
10
-260.19999999999999
20
73.675000000000011
42
-0.41421356237309503
10
-259.69999999999999
20
73.174999999999997
10
-259.69999999999999
20
60.174999999999997
42
-0.41421356237309503
0
LWPOLYLINE
5
168
100
AcDbEntity
8
0
100
AcDbPolyline
90
8
70
1
43
0.0
10
-286.39375000000001
20
59.675000000000004
10
-299.39375000000001
20
59.674999999999997
42
-0.41421356237309503
10
-299.89375000000001
20
60.174999999999997
10
-299.89375000000001
20
73.174999999999997
42
-0.41421356237309503
10
-299.39375000000001
20
73.674999999999997
10
-286.39375000000001
20
73.675000000000011
42
-0.41421356237309503
10
-285.89375000000001
20
73.174999999999997
10
-285.89375000000001
20
60.174999999999997
42
-0.41421356237309503
0
LWPOLYLINE
5
169
100
AcDbEntity
8
0
100
AcDbPolyline
90
8
70
1
43
0.0
10
-312.58749999999998
20
59.675000000000004
10
-325.58749999999998
20
59.675000000000026
42
-0.41421356237309503
10
-326.08749999999992
20
60.174999999999997
10
-326.08749999999992
20
73.174999999999997
42
-0.41421356237309503
10
-325.58749999999998
20
73.674999999999997
10
-312.58749999999998
20
73.675000000000011
42
-0.41421356237309503
10
-312.08749999999998
20
73.174999999999997
10
-312.08749999999998
20
60.174999999999997
42
-0.41421356237309503
0
LWPOLYLINE
5
170
100
AcDbEntity
8
0
100
AcDbPolyline
90
8
70
1
43
0.0
10
-3.0249999999999999
20
2.5249999999999999
10
-16.024999999999999
20
2.5249999999999995
42
-0.41421356237309503
10
-16.525000000000002
20
3.0249999999999999
10
-16.525000000000002
20
16.024999999999999
42
-0.41421356237309503
10
-16.024999999999999
20
16.525000000000002
10
-3.0249999999999999
20
16.525000000000002
42
-0.41421356237309503
10
-2.5249999999999999
20
16.024999999999999
10
-2.5249999999999999
20
3.0249999999999999
42
-0.41421356237309503
0
LWPOLYLINE
5
171
100
AcDbEntity
8
0
100
AcDbPolyline
90
8
70
1
43
0.0
10
-22.074999999999999
20
2.5249999999999999
10
-35.075000000000003
20
2.5250000000000017
42
-0.41421356237309503
10
-35.575000000000003
20
3.0249999999999999
10
-35.575000000000003
20
16.024999999999999
42
-0.41421356237309503
10
-35.075000000000003
20
16.525000000000002
10
-22.074999999999999
20
16.524999999999999
42
-0.41421356237309503
10
-21.575000000000003
20
16.024999999999999
10
-21.575000000000003
20
3.0249999999999999
42
-0.41421356237309503
0
LWPOLYLINE
5
172
100
AcDbEntity
8
0
100
AcDbPolyline
90
8
70
1
43
0.0
10
-45.887500000000003
20
2.5249999999999999
10
-58.88750000000001
20
2.5250000000000017
42
-0.41421356237309503
10
-59.387500000000003
20
3.0249999999999999
10
-59.387500000000003
20
16.024999999999999
42
-0.41421356237309503
10
-58.88750000000001
20
16.525000000000002
10
-45.887500000000003
20
16.524999999999999
42
-0.41421356237309503
10
-45.387500000000003
20
16.024999999999999
10
-45.387500000000003
20
3.0249999999999999
42
-0.41421356237309503
0
LWPOLYLINE
5
173
100
AcDbEntity
8
0
100
AcDbPolyline
90
8
70
1
43
0.0
10
-103.03750000000001
20
2.5249999999999999
10
-116.03749999999999
20
2.5249999999999928
42
-0.41421356237309503
10
-116.53750000000001
20
3.0249999999999999
10
-116.53750000000001
20
16.024999999999999
42
-0.41421356237309503
10
-116.03749999999999
20
16.525000000000002
10
-103.03750000000001
20
16.525000000000006
42
-0.41421356237309503
10
-102.53749999999999
20
16.024999999999999
10
-102.53749999999999
20
3.0249999999999999
42
-0.41421356237309503
0
LWPOLYLINE
5
174
100
AcDbEntity
8
0
100
AcDbPolyline
90
8
70
1
43
0.0
10
-64.9375
20
2.5249999999999999
10
-77.9375
20
2.5250000000000017
42
-0.41421356237309503
10
-78.4375
20
3.0249999999999999
10
-78.4375
20
16.024999999999999
42
-0.41421356237309503
10
-77.9375
20
16.525000000000002
10
-64.9375
20
16.524999999999999
42
-0.41421356237309503
10
-64.4375
20
16.024999999999999
10
-64.4375
20
3.0249999999999999
42
-0.41421356237309503
0
LWPOLYLINE
5
175
100
AcDbEntity
8
0
100
AcDbPolyline
90
8
70
1
43
0.0
10
-173.68750000000003
20
3.0249999999999999
10
-173.68750000000003
20
16.024999999999999
42
-0.41421356237309503
10
-173.1875
20
16.525000000000002
10
-160.1875
20
16.525000000000006
42
-0.41421356237309503
10
-159.6875
20
16.024999999999999
10
-159.6875
20
3.0249999999999999
42
-0.41421356237309503
10
-160.1875
20
2.5249999999999999
10
-173.1875
20
2.5249999999999928
42
-0.41421356237309503
0
LWPOLYLINE
5
176
100
AcDbEntity
8
0
100
AcDbPolyline
90
8
70
1
43
0.0
10
-83.987499999999997
20
2.5249999999999999
10
-96.987500000000011
20
2.5249999999999928
42
-0.41421356237309503
10
-97.487500000000011
20
3.0249999999999999
10
-97.487500000000011
20
16.024999999999999
42
-0.41421356237309503
10
-96.987500000000011
20
16.525000000000002
10
-83.987499999999997
20
16.525000000000006
42
-0.41421356237309503
10
-83.487499999999983
20
16.024999999999999
10
-83.487499999999983
20
3.0249999999999999
42
-0.41421356237309503
0
LWPOLYLINE
5
177
100
AcDbEntity
8
0
100
AcDbPolyline
90
8
70
1
43
0.0
10
-179.23750000000001
20
2.5249999999999999
42
0.41421356237309503
10
-178.73750000000001
20
3.0249999999999999
10
-178.73750000000001
20
16.024999999999999
42
0.41421356237309503
10
-179.23750000000001
20
16.525000000000002
10
-192.23750000000001
20
16.525000000000002
42
0.41421356237309503
10
-192.73750000000004
20
16.024999999999999
10
-192.73750000000004
20
3.0249999999999999
42
0.41421356237309503
10
-192.23750000000001
20
2.5249999999999999
0
LWPOLYLINE
5
178
100
AcDbEntity
8
0
100
AcDbPolyline
90
8
70
1
43
0.0
10
-122.08750000000002
20
2.5249999999999999
42
0.41421356237309503
10
-121.58750000000001
20
3.0249999999999999
10
-121.58750000000001
20
16.024999999999999
42
0.41421356237309503
10
-122.08750000000002
20
16.525000000000006
10
-135.08750000000001
20
16.525000000000002
42
0.41421356237309503
10
-135.58750000000001
20
16.024999999999999
10
-135.58750000000001
20
3.0249999999999999
42
0.41421356237309503
10
-135.08750000000001
20
2.5249999999999999
0
LWPOLYLINE
5
179
100
AcDbEntity
8
0
100
AcDbPolyline
90
8
70
1
43
0.0
10
-154.63750000000002
20
3.0249999999999999
10
-154.63750000000002
20
16.024999999999999
42
-0.41421356237309503
10
-154.13749999999999
20
16.525000000000002
10
-141.13749999999999
20
16.525000000000006
42
-0.41421356237309503
10
-140.63749999999999
20
16.024999999999999
10
-140.63749999999999
20
3.0249999999999999
42
-0.41421356237309503
10
-141.13749999999999
20
2.5249999999999999
10
-154.13749999999999
20
2.5249999999999928
42
-0.41421356237309503
0
LWPOLYLINE
5
180
100
AcDbEntity
8
0
100
AcDbPolyline
90
8
70
1
43
0.0
10
-145.40000000000001
20
73.174999999999997
10
-145.40000000000003
20
60.174999999999997
42
-0.41421356237309503
10
-145.90000000000001
20
59.675000000000004
10
-158.90000000000001
20
59.674999999999997
42
-0.41421356237309503
10
-159.40000000000001
20
60.174999999999997
10
-159.40000000000001
20
73.174999999999997
42
-0.41421356237309503
10
-158.90000000000001
20
73.674999999999997
10
-145.90000000000001
20
73.675000000000011
42
-0.41421356237309503
0
LWPOLYLINE
5
181
100
AcDbEntity
8
0
100
AcDbPolyline
90
8
70
1
43
0.0
10
-259.69999999999999
20
92.224999999999994
10
-259.69999999999999
20
79.224999999999994
42
-0.41421356237309503
10
-260.19999999999999
20
78.724999999999994
10
-273.19999999999999
20
78.724999999999994
42
-0.41421356237309503
10
-273.69999999999999
20
79.224999999999994
10
-273.69999999999999
20
92.224999999999994
42
-0.41421356237309503
10
-273.19999999999999
20
92.725000000000009
10
-260.19999999999999
20
92.725000000000009
42
-0.41421356237309503
0
LWPOLYLINE
5
182
100
AcDbEntity
8
0
100
AcDbPolyline
90
8
70
1
43
0.0
10
-331.13750000000005
20
92.224999999999994
10
-331.13750000000005
20
79.224999999999994
42
-0.41421356237309503
10
-331.63749999999999
20
78.724999999999994
10
-344.63749999999999
20
78.725000000000023
42
-0.41421356237309503
10
-345.13749999999993
20
79.224999999999994
10
-345.13750000000005
20
92.224999999999994
42
-0.41421356237309503
10
-344.63749999999999
20
92.725000000000009
10
-331.63749999999999
20
92.724999999999966
42
-0.41421356237309503
0
LWPOLYLINE
5
183
100
AcDbEntity
8
0
100
AcDbPolyline
90
8
70
1
43
0.0
10
-312.08749999999998
20
92.224999999999994
10
-312.08749999999998
20
79.224999999999994
42
-0.41421356237309503
10
-312.58749999999998
20
78.724999999999994
10
-325.58749999999998
20
78.725000000000023
42
-0.41421356237309503
10
-326.08749999999992
20
79.224999999999994
10
-326.08749999999998
20
92.224999999999994
42
-0.41421356237309503
10
-325.58749999999998
20
92.725000000000009
10
-312.58749999999998
20
92.725000000000009
42
-0.41421356237309503
0
LWPOLYLINE
5
184
100
AcDbEntity
8
0
100
AcDbPolyline
90
8
70
1
43
0.0
10
-293.03750000000002
20
92.224999999999994
10
-293.03750000000002
20
79.224999999999994
42
-0.41421356237309503
10
-293.53750000000002
20
78.724999999999994
10
-306.53750000000002
20
78.724999999999994
42
-0.41421356237309503
10
-307.03750000000002
20
79.224999999999994
10
-307.03750000000002
20
92.224999999999994
42
-0.41421356237309503
10
-306.53750000000002
20
92.725000000000009
10
-293.53750000000002
20
92.725000000000009
42
-0.41421356237309503
0
LWPOLYLINE
5
185
100
AcDbEntity
8
0
100
AcDbPolyline
90
8
70
1
43
0.0
10
-131.78750000000002
20
91.725000000000009
10
-125.38750000000002
20
91.725000000000009
42
-0.41421356237309503
10
-124.88750000000002
20
91.225000000000009
10
-124.88749999999999
20
77.224999999999994
42
-0.41421356237309503
10
-125.3875
20
76.724999999999994
10
-131.78750000000002
20
76.724999999999994
42
-0.41421356237309503
10
-132.28750000000002
20
77.224999999999994
10
-132.28750000000002
20
91.225000000000009
42
-0.41421356237309503
0
ENDSEC
0
SECTION
2
OBJECTS
0
DICTIONARY
5
C
100
AcDbDictionary
3
ACAD_GROUP
350
D
3
ACAD_MLINESTYLE
350
17
0
DICTIONARY
5
D
100
AcDbDictionary
0
DICTIONARY
5
1A
330
C
100
AcDbDictionary
0
DICTIONARY
5
17
100
AcDbDictionary
0
ENDSEC
0
EOF
