0
SECTION
2
HEADER
9
$INSUNITS
70
4
9
$ACADVER
1
AC1014
9
$HANDSEED
5
FFFF
0
ENDSEC
0
SECTION
2
TABLES
0
TABLE
2
VPORT
5
8
100
AcDbSymbolTable
0
ENDTAB
0
TABLE
2
LTYPE
5
5
100
AcDbSymbolTable
0
LTYPE
5
14
100
AcDbSymbolTableRecord
100
AcDbLinetypeTableRecord
2
BYBLOCK
70
0
0
LTYPE
5
15
100
AcDbSymbolTableRecord
100
AcDbLinetypeTableRecord
2
BYLAYER
70
0
0
ENDTAB
0
TABLE
2
LAYER
5
2
100
AcDbSymbolTable
70
2
0
LAYER
5
50
100
AcDbSymbolTableRecord
100
AcDbLayerTableRecord
2
0
70
0
6
CONTINUOUS
0
ENDTAB
0
TABLE
2
STYLE
5
3
100
AcDbSymbolTable
70
1
0
STYLE
5
11
100
AcDbSymbolTableRecord
100
AcDbTextStyleTableRecord
2
STANDARD
70
0
0
ENDTAB
0
TABLE
2
VIEW
5
6
100
AcDbSymbolTable
70
0
0
ENDTAB
0
TABLE
2
UCS
5
7
100
AcDbSymbolTable
70
0
0
ENDTAB
0
TABLE
2
APPID
5
9
100
AcDbSymbolTable
70
2
0
APPID
5
12
100
AcDbSymbolTableRecord
100
AcDbRegAppTableRecord
2
ACAD
70
0
0
ENDTAB
0
TABLE
2
DIMSTYLE
5
A
100
AcDbSymbolTable
70
1
0
ENDTAB
0
TABLE
2
BLOCK_RECORD
5
1
100
AcDbSymbolTable
70
1
0
BLOCK_RECORD
5
1F
100
AcDbSymbolTableRecord
100
AcDbBlockTableRecord
2
*MODEL_SPACE
0
BLOCK_RECORD
5
1B
100
AcDbSymbolTableRecord
100
AcDbBlockTableRecord
2
*PAPER_SPACE
0
ENDTAB
0
ENDSEC
0
SECTION
2
BLOCKS
0
BLOCK
5
20
100
AcDbEntity
100
AcDbBlockBegin
2
*MODEL_SPACE
0
ENDBLK
5
21
100
AcDbEntity
100
AcDbBlockEnd
0
BLOCK
5
1C
100
AcDbEntity
100
AcDbBlockBegin
2
*PAPER_SPACE
0
ENDBLK
5
1D
100
AcDbEntity
100
AcDbBlockEnd
0
ENDSEC
0
SECTION
2
ENTITIES
0
LINE
5
100
100
AcDbEntity
8
0
100
AcDbLine
10
194.78603728419603
20
26.274676182408427
30
0
11
194.78603728419603
21
71.274676182408115
31
0
0
SPLINE
5
101
100
AcDbEntity
8
0
100
AcDbSpline
70
0
71
3
72
8
73
4
74
0
42
0.000000001
43
0.0000000001
44
0.0000000001
40
0
40
0
40
0
40
0
40
1
40
1
40
1
40
1
10
-104.21396271580392
20
26.274676182408427
30
0
10
-104.21396271580392
20
23.789394808170094
30
0
10
-102.19924409004241
20
21.774676182408591
30
0
10
-99.71396271580376
20
21.774676182408591
30
0
0
LINE
5
102
100
AcDbEntity
8
0
100
AcDbLine
10
190.28603728419623
20
75.774676182407944
30
0
11
-99.713962715803774
21
75.774676182407944
31
0
0
SPLINE
5
103
100
AcDbEntity
8
0
100
AcDbSpline
70
2
71
3
72
14
73
10
74
0
42
0.000000001
43
0.0000000001
44
0.0000000001
40
0
40
0
40
0
40
0
40
1
40
1
40
2
40
2
40
3
40
3
40
4
40
4
40
4
40
4
10
186.58603728419644
20
28.274676182407866
30
0
10
186.58603728419644
20
29.213560257120164
30
0
10
187.34715320948379
20
29.974676182407602
30
0
10
189.22492135890846
20
29.974676182407602
30
0
10
189.98603728419593
20
29.213560257120164
30
0
10
189.98603728419593
20
27.335792107695561
30
0
10
189.22492135890846
20
26.574676182408123
30
0
10
187.34715320948379
20
26.574676182408123
30
0
10
186.58603728419644
20
27.335792107695561
30
0
10
186.58603728419644
20
28.274676182407866
30
0
0
LINE
5
104
100
AcDbEntity
8
0
100
AcDbLine
10
-104.21396271580429
20
71.274676182408115
30
0
11
-104.21396271580392
21
26.274676182408427
31
0
0
LINE
5
105
100
AcDbEntity
8
0
100
AcDbLine
10
-99.71396271580376
20
21.774676182408591
30
0
11
190.28603728419625
21
21.774676182407951
31
0
0
SPLINE
5
106
100
AcDbEntity
8
0
100
AcDbSpline
70
0
71
3
72
8
73
4
74
0
42
0.000000001
43
0.0000000001
44
0.0000000001
40
0
40
0
40
0
40
0
40
1
40
1
40
1
40
1
10
-99.71396271580376
20
75.774676182407944
30
0
10
-102.19924409004241
20
75.774676182407944
30
0
10
-104.2139627158036
20
73.759957556646754
30
0
10
-104.2139627158036
20
71.274676182408115
30
0
0
SPLINE
5
107
100
AcDbEntity
8
0
100
AcDbSpline
70
0
71
3
72
8
73
4
74
0
42
0.000000001
43
0.0000000001
44
0.0000000001
40
0
40
0
40
0
40
0
40
1
40
1
40
1
40
1
10
194.78603728419603
20
71.274676182408115
30
0
10
194.78603728419603
20
73.759957556646754
30
0
10
192.7713186584345
20
75.774676182407944
30
0
10
190.28603728419623
20
75.774676182407944
30
0
0
SPLINE
5
108
100
AcDbEntity
8
0
100
AcDbSpline
70
2
71
3
72
14
73
10
74
0
42
0.000000001
43
0.0000000001
44
0.0000000001
40
0
40
0
40
0
40
0
40
1
40
1
40
2
40
2
40
3
40
3
40
4
40
4
40
4
40
4
10
43.586037284196138
20
69.274676182408029
30
0
10
43.586037284196138
20
70.213560257120321
30
0
10
44.347153209483913
20
70.974676182408103
30
0
10
46.22492135890851
20
70.974676182408103
30
0
10
46.986037284196271
20
70.213560257120321
30
0
10
46.986037284196271
20
68.335792107695724
30
0
10
46.22492135890851
20
67.574676182407956
30
0
10
44.347153209483913
20
67.574676182407956
30
0
10
43.586037284196138
20
68.335792107695724
30
0
10
43.586037284196138
20
69.274676182408029
30
0
0
SPLINE
5
109
100
AcDbEntity
8
0
100
AcDbSpline
70
2
71
3
72
14
73
10
74
0
42
0.000000001
43
0.0000000001
44
0.0000000001
40
0
40
0
40
0
40
0
40
1
40
1
40
2
40
2
40
3
40
3
40
4
40
4
40
4
40
4
10
186.58603728419644
20
69.274676182408029
30
0
10
186.58603728419644
20
70.213560257120321
30
0
10
187.34715320948379
20
70.974676182408103
30
0
10
189.22492135890846
20
70.974676182408103
30
0
10
189.98603728419593
20
70.213560257120321
30
0
10
189.98603728419593
20
68.335792107695724
30
0
10
189.22492135890846
20
67.574676182407956
30
0
10
187.34715320948379
20
67.574676182407956
30
0
10
186.58603728419644
20
68.335792107695724
30
0
10
186.58603728419644
20
69.274676182408029
30
0
0
SPLINE
5
110
100
AcDbEntity
8
0
100
AcDbSpline
70
2
71
3
72
14
73
10
74
0
42
0.000000001
43
0.0000000001
44
0.0000000001
40
0
40
0
40
0
40
0
40
1
40
1
40
2
40
2
40
3
40
3
40
4
40
4
40
4
40
4
10
43.586037284196138
20
28.274676182407866
30
0
10
43.586037284196138
20
29.213560257120164
30
0
10
44.347153209483913
20
29.974676182407602
30
0
10
46.22492135890851
20
29.974676182407602
30
0
10
46.986037284196271
20
29.213560257120164
30
0
10
46.986037284196271
20
27.335792107695561
30
0
10
46.22492135890851
20
26.574676182408123
30
0
10
44.347153209483913
20
26.574676182408123
30
0
10
43.586037284196138
20
27.335792107695561
30
0
10
43.586037284196138
20
28.274676182407866
30
0
0
SPLINE
5
111
100
AcDbEntity
8
0
100
AcDbSpline
70
2
71
3
72
14
73
10
74
0
42
0.000000001
43
0.0000000001
44
0.0000000001
40
0
40
0
40
0
40
0
40
1
40
1
40
2
40
2
40
3
40
3
40
4
40
4
40
4
40
4
10
-99.413962715804416
20
69.274676182408029
30
0
10
-99.413962715804416
20
70.213560257120321
30
0
10
-98.652846790516662
20
70.974676182408103
30
0
10
-96.775078641092051
20
70.974676182408103
30
0
10
-96.013962715804297
20
70.213560257120321
30
0
10
-96.013962715804297
20
68.335792107695724
30
0
10
-96.775078641092051
20
67.574676182407956
30
0
10
-98.652846790516662
20
67.574676182407956
30
0
10
-99.413962715804416
20
68.335792107695724
30
0
10
-99.413962715804416
20
69.274676182408029
30
0
0
SPLINE
5
112
100
AcDbEntity
8
0
100
AcDbSpline
70
2
71
3
72
14
73
10
74
0
42
0.000000001
43
0.0000000001
44
0.0000000001
40
0
40
0
40
0
40
0
40
1
40
1
40
2
40
2
40
3
40
3
40
4
40
4
40
4
40
4
10
-99.413962715804416
20
28.274676182407866
30
0
10
-99.413962715804416
20
29.213560257120164
30
0
10
-98.652846790516662
20
29.974676182407602
30
0
10
-96.775078641092051
20
29.974676182407602
30
0
10
-96.013962715804297
20
29.213560257120164
30
0
10
-96.013962715804297
20
27.335792107695561
30
0
10
-96.775078641092051
20
26.574676182408123
30
0
10
-98.652846790516662
20
26.574676182408123
30
0
10
-99.413962715804416
20
27.335792107695561
30
0
10
-99.413962715804416
20
28.274676182407866
30
0
0
SPLINE
5
113
100
AcDbEntity
8
0
100
AcDbSpline
70
0
71
3
72
8
73
4
74
0
42
0.000000001
43
0.0000000001
44
0.0000000001
40
0
40
0
40
0
40
0
40
1
40
1
40
1
40
1
10
190.28603728419623
20
21.774676182408591
30
0
10
192.7713186584345
20
21.774676182408591
30
0
10
194.78603728419603
20
23.789394808170094
30
0
10
194.78603728419603
20
26.274676182408427
30
0
0
ENDSEC
0
SECTION
2
OBJECTS
0
DICTIONARY
5
C
100
AcDbDictionary
3
ACAD_GROUP
350
D
3
ACAD_MLINESTYLE
350
17
0
DICTIONARY
5
D
100
AcDbDictionary
0
DICTIONARY
5
1A
330
C
100
AcDbDictionary
0
DICTIONARY
5
17
100
AcDbDictionary
0
ENDSEC
0
EOF
